<svg width="56" height="56" viewBox="0 0 56 56" fill="none" xmlns="http://www.w3.org/2000/svg">
<path d="M10.08 7.0899C19.433 0.189809 32.7747 -1.34144 42.8791 4.9159C52.1422 10.6486 57.3787 22.6198 54.6329 33.263C53.0733 39.3077 49.1743 44.6718 44.727 48.9442C39.6984 53.779 33.356 56.1042 26.3756 55.4945C15.0235 54.5068 5.00894 46.1085 1.57307 35.3141C-2.17 23.5509 2.98144 10.6108 13.4828 4.32041C23.3462 -1.5872 35.8419 -0.911371 44.382 7.02374C52.7188 14.7698 55.4836 27.1002 49.9777 37.2613C44.6419 47.1057 32.529 54.1098 21.2194 52.0965C14.2059 50.8488 7.60828 45.324 4.21967 39.199C1.00121 33.3811 0.0938001 26.3251 1.65341 19.8693C4.77263 6.95285 18.0388 -1.28473 31.0072 0.591527C31.2057 0.619883 31.2907 0.317413 31.0922 0.289057C19.674 -1.44542 7.5563 4.75521 2.8113 15.4125C-2.24089 26.7552 1.47854 40.2765 11.2663 47.7343C16.7013 51.8743 22.7223 53.5379 29.4948 52.3564C35.1236 51.3734 40.4215 48.6464 44.6041 44.7663C53.2245 36.7745 55.8806 24.463 50.2282 13.9711C44.7223 3.75801 33.356 -1.90858 21.9331 0.591527C9.99496 3.20506 0.906683 13.2953 0.0607126 25.5595C-0.752175 37.3558 6.68197 48.6228 17.3062 53.4859C23.0201 56.1042 29.8115 56.8367 35.8514 54.9227C42.0993 52.9424 46.9955 47.9139 50.6488 42.649C57.6103 32.6202 57.3598 19.7842 49.5665 10.2375C41.8441 0.794749 28.4362 -1.70063 17.3109 2.71354C14.6549 3.76746 12.2304 5.20419 9.99023 6.97648C9.9288 7.02374 10.0139 7.13716 10.08 7.0899Z" fill="black"/>
</svg>
